<svg width="25" height="25" viewBox="0 0 25 25" fill="none" xmlns="http://www.w3.org/2000/svg">
<g clip-path="url(#clip0_1043_46)">
<path d="M23.9126 20.0386L14.6909 1.59455C14.1988 0.611117 13.2101 0 12.1099 0C11.0101 0 10.0214 0.611117 9.52928 1.59455L0.307245 20.0386C-0.143271 20.9396 -0.095966 21.9887 0.433511 22.8455C0.96337 23.7022 1.88081 24.2142 2.88827 24.2142H21.3316C22.3394 24.2142 23.2572 23.7022 23.7867 22.8455C24.3162 21.9887 24.3627 20.9389 23.9126 20.0386ZM21.7924 21.6133C21.7336 21.7094 21.5948 21.8704 21.3316 21.8704H2.88827C2.62543 21.8704 2.48658 21.7094 2.42746 21.6133C2.36795 21.5179 2.28632 21.3219 2.40381 21.0869L11.6255 2.64282C11.7605 2.37274 12.0092 2.34375 12.1099 2.34375C12.2106 2.34375 12.4593 2.37274 12.5944 2.64282L21.816 21.0869C21.9335 21.3219 21.8519 21.5179 21.7924 21.6133Z" fill="#1E2F1A"/>
<path d="M12.5 6.99615C11.8526 6.99615 11.3281 7.52106 11.3281 8.16803V15.6181C11.3281 16.2651 11.8526 16.79 12.5 16.79C13.1474 16.79 13.6719 16.2651 13.6719 15.6181V8.16803C13.6719 7.52105 13.1474 6.99615 12.5 6.99615ZM12.5 17.8642C11.8526 17.8642 11.3281 18.3891 11.3281 19.0361V19.8868C11.3281 20.5338 11.8526 21.0587 12.5 21.0587C13.1474 21.0587 13.6719 20.5337 13.6719 19.8868V19.0361C13.6719 18.3891 13.1474 17.8642 12.5 17.8642Z" fill="#1E2F1A"/>
</g>
<defs>
<clipPath id="clip0_1043_46">
<rect width="25" height="25" fill="white"/>
</clipPath>
</defs>
</svg>
