<svg width="28" height="28" viewBox="0 0 28 28" fill="none" xmlns="http://www.w3.org/2000/svg">
<path d="M14 0C11.2311 0 8.52431 0.821086 6.22202 2.35942C3.91973 3.89776 2.12532 6.08426 1.06569 8.64243C0.00606598 11.2006 -0.271181 14.0155 0.269012 16.7313C0.809205 19.447 2.14258 21.9416 4.10051 23.8995C6.05845 25.8574 8.55301 27.1908 11.2687 27.731C13.9845 28.2712 16.7994 27.9939 19.3576 26.9343C21.9157 25.8747 24.1022 24.0803 25.6406 21.778C27.1789 19.4757 28 16.7689 28 14C27.9959 10.2882 26.5196 6.72968 23.8949 4.10506C21.2703 1.48045 17.7118 0.00412801 14 0ZM14 25.2C11.7849 25.2 9.61945 24.5431 7.77762 23.3125C5.93579 22.0818 4.50026 20.3326 3.65256 18.286C2.80485 16.2395 2.58306 13.9876 3.01521 11.815C3.44737 9.6424 4.51406 7.64675 6.08041 6.0804C7.64676 4.51405 9.64241 3.44736 11.815 3.0152C13.9876 2.58305 16.2395 2.80485 18.2861 3.65255C20.3326 4.50025 22.0818 5.93578 23.3125 7.77761C24.5431 9.61944 25.2 11.7848 25.2 14C25.1966 16.9694 24.0155 19.8162 21.9158 21.9158C19.8162 24.0155 16.9694 25.1966 14 25.2ZM14 13.3C13.6287 13.3 13.2726 13.4475 13.0101 13.71C12.7475 13.9726 12.6 14.3287 12.6 14.7V18.9C12.6 19.2713 12.7475 19.6274 13.0101 19.8899C13.2726 20.1525 13.6287 20.3 14 20.3C14.3713 20.3 14.7274 20.1525 14.99 19.8899C15.2525 19.6274 15.4 19.2713 15.4 18.9V14.7C15.4 14.3287 15.2525 13.9726 14.99 13.71C14.7274 13.4475 14.3713 13.3 14 13.3ZM14 7.7C13.6539 7.7 13.3155 7.80263 13.0278 7.99493C12.74 8.18722 12.5157 8.46053 12.3832 8.7803C12.2508 9.10007 12.2161 9.45194 12.2836 9.79141C12.3512 10.1309 12.5178 10.4427 12.7626 10.6874C13.0073 10.9322 13.3191 11.0988 13.6586 11.1664C13.9981 11.2339 14.3499 11.1992 14.6697 11.0668C14.9895 10.9343 15.2628 10.71 15.4551 10.4222C15.6474 10.1345 15.75 9.79611 15.75 9.45C15.75 8.98587 15.5656 8.54075 15.2374 8.21256C14.9093 7.88437 14.4641 7.7 14 7.7Z" fill="#1E2F1A"/>
</svg>
