<svg width="25" height="18" viewBox="0 0 25 18" fill="none" xmlns="http://www.w3.org/2000/svg">
<path d="M12.5 18C9.68872 18 6.66308 16.5454 3.75023 13.7935C1.57271 11.7363 0.228712 9.69817 0.172552 9.61228C-0.0575174 9.26083 -0.0575174 8.73917 0.172552 8.38765C0.228712 8.3019 1.57265 6.26365 3.75023 4.20647C6.66314 1.45471 9.68877 0 12.5 0C15.3113 0 18.337 1.45463 21.2498 4.20647C23.4273 6.26365 24.7713 8.30183 24.8274 8.38765C25.0575 8.73909 25.0575 9.26076 24.8274 9.61228C24.7713 9.69802 23.4273 11.7363 21.2498 13.7935C18.337 16.5454 15.3113 18 12.5 18ZM1.67621 9.00007C2.21971 9.73326 3.24546 11.0225 4.59981 12.2976C6.45654 14.0455 9.33434 16.1294 12.5 16.1294C15.6657 16.1294 18.5435 14.0455 20.4002 12.2976C21.7544 11.0228 22.7802 9.73334 23.3238 9.00007C22.7803 8.26688 21.7545 6.97761 20.4002 5.70255C18.5435 3.95454 15.6657 1.87072 12.5 1.87072C9.33434 1.87072 6.45654 3.95454 4.59981 5.70255C3.24563 6.97739 2.21982 8.26666 1.67621 9.00007Z" fill="#042F13"/>
<path d="M12.4993 14.7988C10.0824 14.7988 8.11621 12.1975 8.11621 9.00006C8.11621 5.80265 10.0824 3.20128 12.4993 3.20128C13.5622 3.20128 14.5876 3.71112 15.3864 4.63698C15.6801 4.97735 15.7096 5.56823 15.4523 5.95678C15.195 6.34534 14.7484 6.38432 14.4547 6.04403C13.9138 5.41709 13.2193 5.07185 12.4992 5.07185C10.862 5.07185 9.53005 6.83408 9.53005 9.00006C9.53005 11.166 10.862 12.9283 12.4992 12.9283C14.1365 12.9283 15.4684 11.166 15.4684 9.00006C15.4684 8.48355 15.785 8.06477 16.1754 8.06477C16.5658 8.06477 16.8823 8.48355 16.8823 9.00006C16.8824 12.1975 14.9162 14.7988 12.4993 14.7988Z" fill="#042F13"/>
<path d="M12.4998 10.8706C11.7202 10.8706 11.0859 10.0315 11.0859 9.00006C11.0859 7.96863 11.7202 7.12949 12.4998 7.12949C13.2795 7.12949 13.9137 7.96863 13.9137 9.00006C13.9137 10.0315 13.2795 10.8706 12.4998 10.8706Z" fill="#042F13"/>
</svg>
