<svg width="38" height="26" viewBox="0 0 38 26" fill="none" xmlns="http://www.w3.org/2000/svg">
<path d="M14.95 18.5359L24.6488 13.0683L14.95 7.6007V18.5359ZM36.5527 4.26545C36.7957 5.12205 36.9639 6.27024 37.076 7.72827C37.2068 9.18631 37.2629 10.4439 37.2629 11.5374L37.375 13.0683C37.375 17.0597 37.076 19.994 36.5527 21.8712C36.0856 23.5115 35.0017 24.5685 33.3198 25.0242C32.4415 25.2611 30.8344 25.4251 28.3676 25.5345C25.9382 25.662 23.7144 25.7167 21.6588 25.7167L18.6875 25.8261C10.8574 25.8261 5.98 25.5345 4.05519 25.0242C2.37331 24.5685 1.28944 23.5115 0.82225 21.8712C0.579313 21.0146 0.411125 19.8664 0.299 18.4083C0.168188 16.9503 0.112125 15.6928 0.112125 14.5992L0 13.0683C0 9.07695 0.299 6.14267 0.82225 4.26545C1.28944 2.62517 2.37331 1.5681 4.05519 1.11246C4.9335 0.875534 6.54063 0.711505 9.00737 0.602153C11.4368 0.474575 13.6606 0.419899 15.7162 0.419899L18.6875 0.310547C26.5176 0.310547 31.395 0.602153 33.3198 1.11246C35.0017 1.5681 36.0856 2.62517 36.5527 4.26545Z" fill="#042F13"/>
</svg>
