<svg width="30" height="30" viewBox="0 0 30 30" fill="none" xmlns="http://www.w3.org/2000/svg">
<path d="M29.6195 14.0606L27.4962 11.9772L15.8806 0.380333C15.7684 0.260271 15.633 0.164579 15.4826 0.099164C15.3322 0.0337492 15.1701 0 15.0063 0C14.8424 0 14.6803 0.0337492 14.5299 0.099164C14.3795 0.164579 14.2441 0.260271 14.132 0.380333L2.51634 11.8517L0.443015 13.91C0.31154 14.0216 0.204436 14.1593 0.128423 14.3145C0.0524099 14.4696 0.00912891 14.6389 0.00129474 14.8116C-0.00653943 14.9844 0.0212426 15.1569 0.0828977 15.3184C0.144553 15.4799 0.23875 15.6268 0.35958 15.7499C0.48041 15.8731 0.625264 15.9698 0.785055 16.0341C0.944846 16.0983 1.11612 16.1287 1.28814 16.1232C1.46016 16.1178 1.62921 16.0767 1.78468 16.0026C1.94015 15.9284 2.07869 15.8227 2.1916 15.6922V28.7449C2.1916 29.0778 2.32319 29.397 2.55743 29.6324C2.79166 29.8678 3.10934 30 3.4406 30H26.6469C26.9781 30 27.2958 29.8678 27.53 29.6324C27.7643 29.397 27.8959 29.0778 27.8959 28.7449V15.8177C28.1333 16.0406 28.4452 16.166 28.7702 16.1691C29.1077 16.1683 29.4312 16.0329 29.6694 15.7926C29.8902 15.5557 30.0088 15.2407 29.9995 14.9163C29.9901 14.5918 29.8535 14.2843 29.6195 14.0606ZM10.9595 27.6154V17.374H18.4535V27.6154H10.9595ZM25.3479 27.6154H21.0014V16.1189C20.995 15.7881 20.8614 15.4726 20.6285 15.2386C20.3957 15.0046 20.0817 14.8703 19.7524 14.8638H9.7605C9.43125 14.8703 9.11726 15.0046 8.8844 15.2386C8.65154 15.4726 8.5179 15.7881 8.51151 16.1189V27.6154H4.63963V13.3327L15.0063 3.01598L25.3479 13.3327V27.6154Z" fill="#ffffff"/>
</svg>
