<svg width="14" height="32" viewBox="0 0 14 32" fill="none" xmlns="http://www.w3.org/2000/svg">
<path d="M9.625 13.9999H12.25V15.7499H9.625V13.9999Z" fill="#1E2F1A"/>
<path d="M6.99996 0C4.10058 0 1.74999 2.35059 1.74999 5.24997V19.8806C0.663946 21.114 0 22.7275 0 24.4999C0 28.3659 3.13388 31.4998 6.99996 31.4998C7.12596 31.4998 7.25301 31.4963 7.38041 31.4897C10.9959 31.2982 13.9163 28.2805 13.9982 24.6609C14.0398 22.8251 13.3689 21.1511 12.2499 19.8806V17.4999H9.62494V20.8714L10.2798 21.6152C11.0074 22.4373 11.398 23.5038 11.3735 24.6014C11.3231 26.8361 9.46919 28.7502 7.24146 28.8682C7.16096 28.8727 7.08011 28.8748 6.99996 28.8748C4.58742 28.8748 2.62498 26.9124 2.62498 24.4999C2.62662 23.437 3.01602 22.4113 3.72013 21.6152L4.37497 20.8714V5.24997C4.37497 3.80273 5.55272 2.62498 6.99996 2.62498C8.4472 2.62498 9.62494 3.80273 9.62494 5.24997H12.2499C12.2499 2.35059 9.89934 0 6.99996 0Z" fill="#1E2F1A"/>
<path d="M9.62497 10.4999H12.25V12.2499H9.62497V10.4999ZM9.62497 6.99995H12.25V8.74994H9.62497V6.99995ZM6.12499 10.4999V22.0282C5.1072 22.3897 4.375 23.3596 4.375 24.5002C4.375 25.9478 5.55239 27.1252 6.99998 27.1252C8.44758 27.1252 9.62497 25.9478 9.62497 24.5002C9.62497 23.3599 8.89277 22.3897 7.87498 22.0282V10.4999H6.12499Z" fill="#1E2F1A"/>
</svg>
