<svg width="42" height="30" viewBox="0 0 42 30" fill="none" xmlns="http://www.w3.org/2000/svg">
<path d="M38.9219 0H2.20312C1.61902 0.000637581 1.05901 0.232957 0.645985 0.645985C0.232957 1.05901 0.000637581 1.61902 0 2.20312V27.1719C0.000635641 27.756 0.232954 28.316 0.645983 28.729C1.05901 29.142 1.61901 29.3744 2.20312 29.375H38.9219C39.506 29.3744 40.066 29.142 40.479 28.729C40.892 28.316 41.1244 27.756 41.125 27.1719V2.20312C41.1244 1.61902 40.892 1.05901 40.479 0.645985C40.066 0.232957 39.506 0.000637581 38.9219 0ZM1.46875 2.20312C1.469 2.00843 1.54645 1.82178 1.68412 1.68412C1.82178 1.54645 2.00843 1.469 2.20312 1.46875H38.9219C39.1166 1.469 39.3032 1.54645 39.4409 1.68412C39.5786 1.82178 39.656 2.00843 39.6562 2.20312V4.40625H1.46875V2.20312ZM39.6562 27.1719C39.656 27.3666 39.5786 27.5532 39.4409 27.6909C39.3032 27.8286 39.1166 27.906 38.9219 27.9062H2.20312C2.00843 27.906 1.82178 27.8286 1.68411 27.6909C1.54644 27.5532 1.46899 27.3666 1.46875 27.1719V5.875H39.6562V27.1719Z" fill="white"/>
<path d="M37.3978 3.01562H37.3906C37.1952 3.01658 37.0082 3.095 36.8705 3.23368C36.7328 3.37236 36.6558 3.55998 36.6562 3.7554C36.6567 3.95081 36.7347 4.13806 36.873 4.27606C37.0114 4.41407 37.1988 4.49158 37.3942 4.49158C37.5896 4.49158 37.7771 4.41407 37.9154 4.27606C38.0538 4.13806 38.1317 3.95081 38.1322 3.7554C38.1327 3.55998 38.0556 3.37236 37.918 3.23368C37.7803 3.095 37.5932 3.01658 37.3978 3.01562ZM34.4531 3.01562H34.4459C34.2505 3.01658 34.0635 3.095 33.9258 3.23368C33.7881 3.37236 33.7111 3.55998 33.7115 3.7554C33.712 3.95081 33.79 4.13806 33.9283 4.27606C34.0667 4.41407 34.2541 4.49158 34.4495 4.49158C34.6449 4.49158 34.8324 4.41407 34.9707 4.27606C35.1091 4.13806 35.187 3.95081 35.1875 3.7554C35.188 3.55998 35.1109 3.37236 34.9733 3.23368C34.8356 3.095 34.6485 3.01658 34.4531 3.01562ZM31.5192 3.01562H31.512C31.3166 3.01658 31.1296 3.095 30.9919 3.23368C30.8542 3.37236 30.7772 3.55998 30.7776 3.7554C30.7781 3.95081 30.8561 4.13806 30.9944 4.27606C31.1328 4.41407 31.3202 4.49158 31.5156 4.49158C31.711 4.49158 31.8985 4.41407 32.0368 4.27606C32.1752 4.13806 32.2531 3.95081 32.2536 3.7554C32.2541 3.55998 32.177 3.37236 32.0394 3.23368C31.9017 3.095 31.7146 3.01658 31.5192 3.01562ZM3.60938 9.625H8.75C8.94477 9.625 9.13156 9.54763 9.26928 9.40991C9.407 9.27218 9.48438 9.08539 9.48438 8.89062C9.48438 8.69586 9.407 8.50907 9.26928 8.37134C9.13156 8.23362 8.94477 8.15625 8.75 8.15625H3.60938C3.41461 8.15625 3.22782 8.23362 3.09009 8.37134C2.95237 8.50907 2.875 8.69586 2.875 8.89062C2.875 9.08539 2.95237 9.27218 3.09009 9.40991C3.22782 9.54763 3.41461 9.625 3.60938 9.625ZM3.60938 12.5625H8.75C8.94477 12.5625 9.13156 12.4851 9.26928 12.3474C9.407 12.2097 9.48438 12.0229 9.48438 11.8281C9.48438 11.6334 9.407 11.4466 9.26928 11.3088C9.13156 11.1711 8.94477 11.0938 8.75 11.0938H3.60938C3.41461 11.0938 3.22782 11.1711 3.09009 11.3088C2.95237 11.4466 2.875 11.6334 2.875 11.8281C2.875 12.0229 2.95237 12.2097 3.09009 12.3474C3.22782 12.4851 3.41461 12.5625 3.60938 12.5625ZM3.60938 15.5H8.75C8.94477 15.5 9.13156 15.4226 9.26928 15.2849C9.407 15.1472 9.48438 14.9604 9.48438 14.7656C9.48438 14.5709 9.407 14.3841 9.26928 14.2463C9.13156 14.1086 8.94477 14.0312 8.75 14.0312H3.60938C3.41461 14.0312 3.22782 14.1086 3.09009 14.2463C2.95237 14.3841 2.875 14.5709 2.875 14.7656C2.875 14.9604 2.95237 15.1472 3.09009 15.2849C3.22782 15.4226 3.41461 15.5 3.60938 15.5ZM3.60938 18.4375H8.75C8.94477 18.4375 9.13156 18.3601 9.26928 18.2224C9.407 18.0847 9.48438 17.8979 9.48438 17.7031C9.48438 17.5084 9.407 17.3216 9.26928 17.1838C9.13156 17.0461 8.94477 16.9688 8.75 16.9688H3.60938C3.41461 16.9688 3.22782 17.0461 3.09009 17.1838C2.95237 17.3216 2.875 17.5084 2.875 17.7031C2.875 17.8979 2.95237 18.0847 3.09009 18.2224C3.22782 18.3601 3.41461 18.4375 3.60938 18.4375ZM25.6406 16.9688H32.1169C32.2246 16.9688 32.331 16.9452 32.4286 16.8995C32.5261 16.8539 32.6124 16.7873 32.6813 16.7045C32.7502 16.6218 32.8001 16.5249 32.8274 16.4207C32.8546 16.3165 32.8587 16.2076 32.8391 16.1017C32.5302 14.4452 31.7512 12.9125 30.5951 11.6867L31.2406 10.3594H34.4531C34.6479 10.3594 34.8347 10.282 34.9724 10.1443C35.1101 10.0066 35.1875 9.81977 35.1875 9.625C35.1875 9.43023 35.1101 9.24344 34.9724 9.10572C34.8347 8.968 34.6479 8.89062 34.4531 8.89062H30.7812C30.6435 8.89061 30.5085 8.92933 30.3917 9.00238C30.2749 9.07543 30.181 9.17985 30.1208 9.30372L29.4599 10.6622C28.3743 9.84074 27.112 9.28386 25.7733 9.03589C25.6674 9.01635 25.5585 9.02036 25.4543 9.04764C25.3501 9.07491 25.2532 9.12477 25.1705 9.1937C25.0877 9.26262 25.0212 9.34892 24.9755 9.44645C24.9298 9.54399 24.9062 9.65038 24.9062 9.75808V16.2344C24.9063 16.4291 24.9836 16.6159 25.1214 16.7536C25.2591 16.8914 25.4459 16.9687 25.6406 16.9688ZM26.375 10.6957C27.5016 11.054 28.5259 11.6772 29.3618 12.5132C30.1978 13.3491 30.821 14.3734 31.1793 15.5H26.375V10.6957ZM37.3906 10.3594H37.3978C37.5932 10.3584 37.7803 10.28 37.918 10.1413C38.0556 10.0026 38.1327 9.81502 38.1322 9.6196C38.1317 9.42419 38.0538 9.23695 37.9154 9.09894C37.7771 8.96093 37.5896 8.88342 37.3942 8.88342C37.1988 8.88342 37.0114 8.96093 36.873 9.09894C36.7347 9.23695 36.6567 9.42419 36.6562 9.6196C36.6558 9.81502 36.7328 10.0026 36.8705 10.1413C37.0082 10.28 37.1952 10.3584 37.3906 10.3594Z" fill="white"/>
<path d="M37.3909 11.0937H35.1878C34.993 11.0937 34.8063 11.1711 34.6685 11.3088C34.5308 11.4465 34.4534 11.6333 34.4534 11.8281C34.4534 12.0229 34.5308 12.2097 34.6685 12.3474C34.8063 12.4851 34.993 12.5625 35.1878 12.5625H37.3909C37.5857 12.5625 37.7725 12.4851 37.9102 12.3474C38.0479 12.2097 38.1253 12.0229 38.1253 11.8281C38.1253 11.6333 38.0479 11.4465 37.9102 11.3088C37.7725 11.1711 37.5857 11.0937 37.3909 11.0937ZM17.2473 23.2568L16.3763 25.0468H13.1638C12.969 25.0468 12.7822 25.1242 12.6445 25.2619C12.5068 25.3997 12.4294 25.5865 12.4294 25.7812C12.4294 25.976 12.5068 26.1628 12.6445 26.3005C12.7822 26.4382 12.969 26.5156 13.1638 26.5156H16.8356C16.9734 26.5156 17.1084 26.4769 17.2252 26.4038C17.342 26.3308 17.4359 26.2264 17.4961 26.1025L18.3659 24.3153C19.534 25.3458 20.9548 26.0477 22.4831 26.3492C24.0113 26.6507 25.5922 26.5411 27.0642 26.0315C28.5362 25.5219 29.8465 24.6306 30.8611 23.4487C31.8758 22.2668 32.5585 20.8367 32.8394 19.3046C32.859 19.1986 32.855 19.0897 32.8277 18.9855C32.8004 18.8814 32.7505 18.7845 32.6816 18.7017C32.6127 18.6189 32.5264 18.5524 32.4289 18.5067C32.3313 18.461 32.2249 18.4374 32.1172 18.4375H23.4378V9.75804C23.4379 9.65035 23.4142 9.54396 23.3686 9.44642C23.3229 9.34889 23.2563 9.26259 23.1736 9.19367C23.0908 9.12474 22.9939 9.07488 22.8897 9.04761C22.7856 9.02033 22.6767 9.01632 22.5707 9.03586C21.073 9.31104 19.6722 9.97013 18.5054 10.9487C17.3386 11.9273 16.4456 13.1918 15.9138 14.6188C15.382 16.0458 15.2296 17.5863 15.4713 19.0898C15.7131 20.5934 16.3409 22.0084 17.2932 23.1967C17.2768 23.2159 17.2615 23.236 17.2473 23.2568ZM21.9691 10.6946V19.1718C21.9691 19.3666 22.0465 19.5534 22.1842 19.6911C22.3219 19.8288 22.5087 19.9062 22.7034 19.9062H31.1807C30.8017 21.1106 30.1187 22.1969 29.1975 23.0604C28.2764 23.9239 27.1482 24.5354 25.9219 24.8358C24.6955 25.1363 23.4125 25.1156 22.1965 24.7757C20.9805 24.4358 19.8727 23.7882 18.9799 22.8954C18.0871 22.0026 17.4395 20.8948 17.0996 19.6788C16.7597 18.4628 16.739 17.1797 17.0394 15.9534C17.3399 14.7271 17.9514 13.5989 18.8149 12.6778C19.6783 11.7566 20.7647 11.0736 21.9691 10.6946ZM10.2263 26.5156C10.421 26.5156 10.6078 26.4382 10.7455 26.3005C10.8833 26.1628 10.9606 25.976 10.9606 25.7812C10.9606 25.5865 10.8833 25.3997 10.7455 25.2619C10.6078 25.1242 10.421 25.0468 10.2263 25.0468H10.2191C10.0243 25.0478 9.83789 25.1261 9.70084 25.2645C9.56379 25.4029 9.48734 25.5901 9.48829 25.7848C9.48924 25.9796 9.56753 26.166 9.70593 26.303C9.84432 26.4401 10.0315 26.5165 10.2263 26.5156Z" fill="white"/>
<path d="M10.2256 24.3125H12.4287C12.6235 24.3125 12.8103 24.2351 12.948 24.0974C13.0857 23.9597 13.1631 23.7729 13.1631 23.5781C13.1631 23.3834 13.0857 23.1966 12.948 23.0588C12.8103 22.9211 12.6235 22.8438 12.4287 22.8438H10.2256C10.0308 22.8438 9.84403 22.9211 9.7063 23.0588C9.56858 23.1966 9.49121 23.3834 9.49121 23.5781C9.49121 23.7729 9.56858 23.9597 9.7063 24.0974C9.84403 24.2351 10.0308 24.3125 10.2256 24.3125Z" fill="white"/>
</svg>
