<svg width="28" height="27" viewBox="0 0 28 27" fill="none" xmlns="http://www.w3.org/2000/svg">
<path d="M6.33333 0C4.91885 0 3.56229 0.561903 2.5621 1.5621C1.5619 2.56229 1 3.91885 1 5.33333V9.33333H3.66667V5.33333C3.66667 4.62609 3.94762 3.94781 4.44772 3.44772C4.94781 2.94762 5.62609 2.66667 6.33333 2.66667H22.3333C23.0406 2.66667 23.7189 2.94762 24.219 3.44772C24.7191 3.94781 25 4.62609 25 5.33333V21.3333C25 22.0406 24.7191 22.7189 24.219 23.219C23.7189 23.7191 23.0406 24 22.3333 24H6.33333C5.62609 24 4.94781 23.7191 4.44772 23.219C3.94762 22.7189 3.66667 22.0406 3.66667 21.3333V17.3333H1V21.3333C1 22.7478 1.5619 24.1044 2.5621 25.1046C3.56229 26.1048 4.91885 26.6667 6.33333 26.6667H22.3333C23.7478 26.6667 25.1044 26.1048 26.1046 25.1046C27.1048 24.1044 27.6667 22.7478 27.6667 21.3333V5.33333C27.6667 3.91885 27.1048 2.56229 26.1046 1.5621C25.1044 0.561903 23.7478 0 22.3333 0H6.33333Z" fill="white"/>
<path d="M2.00033 11.6666C1.6467 11.6666 1.30756 11.8071 1.05752 12.0572C0.807468 12.3072 0.666992 12.6463 0.666992 13C0.666992 13.3536 0.807468 13.6927 1.05752 13.9428C1.30756 14.1928 1.6467 14.3333 2.00033 14.3333H14.7763L11.3963 17.7146C11.1534 17.9661 11.0191 18.3029 11.0221 18.6525C11.0251 19.0021 11.1654 19.3365 11.4126 19.5837C11.6598 19.8309 11.9942 19.9712 12.3438 19.9742C12.6934 19.9772 13.0302 19.8428 13.2817 19.6L18.8763 14.0053C19.0204 13.8804 19.1359 13.726 19.2151 13.5525C19.2942 13.3791 19.3352 13.1906 19.3352 13C19.3352 12.8093 19.2942 12.6209 19.2151 12.4474C19.1359 12.274 19.0204 12.1195 18.8763 11.9946L13.2803 6.39997C13.1573 6.27262 13.0102 6.17105 12.8475 6.10117C12.6849 6.03129 12.5099 5.99451 12.3329 5.99297C12.1558 5.99143 11.9802 6.02517 11.8164 6.09221C11.6525 6.15925 11.5037 6.25825 11.3785 6.38344C11.2533 6.50863 11.1543 6.6575 11.0872 6.82137C11.0202 6.98523 10.9865 7.1608 10.988 7.33784C10.9895 7.51488 11.0263 7.68984 11.0962 7.85251C11.1661 8.01518 11.2676 8.16231 11.395 8.2853L14.7763 11.6666H2.00033Z" fill="white"/>
</svg>
