<svg width="28" height="31" viewBox="0 0 28 31" fill="none" xmlns="http://www.w3.org/2000/svg">
<path d="M14.0795 5.40048C14.643 5.40048 15.9816 5.73425 15.9816 5.73425C19.608 6.51276 22.1605 9.64197 22.1605 13.175V22.6845L22.9019 23.3823L23.5214 23.9653H4.47857L5.09807 23.3823L5.83951 22.6845V13.175C5.83951 9.64204 8.39205 6.51276 12.0184 5.73425C12.0184 5.73425 13.4537 5.40048 13.9205 5.40048M14 0C12.5998 0 11.5294 1.00735 11.5294 2.325V3.40993C6.83502 4.41765 3.29406 8.4475 3.29406 13.175V21.7L0 24.8V26.35H28V24.8L24.7059 21.7V13.175C24.7059 8.4475 21.1649 4.41765 16.4706 3.40993V2.325C16.4706 1.00735 15.4002 0 14 0ZM17.2941 27.9H10.7059C10.7059 29.6051 12.188 31 14 31C15.812 31 17.2941 29.6051 17.2941 27.9Z" fill="white"/>
</svg>
