<svg width="28" height="34" viewBox="0 0 28 34" fill="none" xmlns="http://www.w3.org/2000/svg">
<path d="M21.5 2V15M21.5 15L26 10.125M21.5 15L17 10.125" stroke="#0260AD" stroke-width="3" stroke-linecap="round" stroke-linejoin="round"/>
<path d="M9.625 15.9999H12.25V17.7499H9.625V15.9999Z" fill="#0260AD"/>
<path d="M6.99996 2C4.10058 2 1.74999 4.35059 1.74999 7.24997V21.8806C0.663946 23.114 0 24.7275 0 26.4999C0 30.3659 3.13388 33.4998 6.99996 33.4998C7.12596 33.4998 7.25301 33.4963 7.38041 33.4897C10.9959 33.2982 13.9163 30.2805 13.9982 26.6609C14.0398 24.8251 13.3689 23.1511 12.2499 21.8806V19.4999H9.62494V22.8714L10.2798 23.6152C11.0074 24.4373 11.398 25.5038 11.3735 26.6014C11.3231 28.8361 9.46919 30.7502 7.24146 30.8682C7.16096 30.8727 7.08011 30.8748 6.99996 30.8748C4.58742 30.8748 2.62498 28.9124 2.62498 26.4999C2.62662 25.437 3.01602 24.4113 3.72013 23.6152L4.37497 22.8714V7.24997C4.37497 5.80273 5.55272 4.62498 6.99996 4.62498C8.4472 4.62498 9.62494 5.80273 9.62494 7.24997H12.2499C12.2499 4.35059 9.89934 2 6.99996 2Z" fill="#0260AD"/>
<path d="M9.62497 12.4999H12.25V14.2499H9.62497V12.4999ZM9.62497 8.99994H12.25V10.7499H9.62497V8.99994ZM6.12499 12.4999V24.0282C5.1072 24.3897 4.375 25.3595 4.375 26.5002C4.375 27.9478 5.55239 29.1252 6.99998 29.1252C8.44758 29.1252 9.62497 27.9478 9.62497 26.5002C9.62497 25.3599 8.89277 24.3897 7.87498 24.0282V12.4999H6.12499Z" fill="#0260AD"/>
</svg>
